<svg width="512" height="160" viewBox="0 0 512 160" fill="none" xmlns="http://www.w3.org/2000/svg">
<path d="M79.655 0C35.664 0 0 35.663 0 79.654C0 123.647 35.664 159.307 79.655 159.307C123.651 159.307 159.311 123.647 159.311 79.654C159.311 35.666 123.651 0.004 79.654 0.004L79.655 0ZM116.185 114.884C115.845 115.441 115.399 115.926 114.871 116.31C114.344 116.694 113.746 116.971 113.111 117.123C112.477 117.276 111.819 117.303 111.174 117.201C110.53 117.099 109.911 116.871 109.355 116.53C90.653 105.106 67.109 102.519 39.382 108.854C38.0981 109.146 36.7508 108.916 35.6363 108.215C34.5217 107.514 33.731 106.4 33.438 105.116C33.292 104.48 33.2728 103.822 33.3815 103.179C33.4902 102.536 33.7247 101.921 34.0716 101.369C34.4184 100.817 34.8708 100.338 35.4029 99.961C35.9349 99.5839 36.5361 99.3154 37.172 99.171C67.515 92.238 93.542 95.223 114.539 108.055C115.096 108.395 115.58 108.842 115.964 109.369C116.348 109.897 116.624 110.495 116.777 111.129C116.93 111.763 116.956 112.422 116.854 113.066C116.753 113.711 116.525 114.329 116.184 114.885L116.185 114.884ZM125.935 93.195C124.136 96.117 120.313 97.04 117.392 95.242C95.982 82.082 63.343 78.27 38.018 85.958C36.4416 86.4351 34.7402 86.2674 33.2873 85.4916C31.8344 84.7159 30.7485 83.3954 30.268 81.82C29.7928 80.2438 29.9618 78.5436 30.738 77.0918C31.5142 75.64 32.8343 74.5552 34.409 74.075C63.338 65.297 99.301 69.549 123.889 84.658C126.809 86.456 127.732 90.28 125.934 93.196L125.935 93.195ZM126.771 70.61C101.1 55.362 58.742 53.96 34.231 61.4C30.295 62.594 26.133 60.372 24.941 56.436C24.3675 54.5451 24.5684 52.5039 25.4994 50.7611C26.4305 49.0183 28.0155 47.7166 29.906 47.142C58.043 38.6 104.818 40.25 134.375 57.797C135.217 58.2953 135.953 58.955 136.54 59.7381C137.127 60.5212 137.554 61.4125 137.796 62.3608C138.038 63.3091 138.091 64.2959 137.951 65.2646C137.811 66.2333 137.481 67.1649 136.981 68.006C134.889 71.546 130.304 72.713 126.775 70.611L126.771 70.61ZM216.715 73.532C202.961 70.252 200.517 67.951 200.517 63.114C200.517 58.544 204.816 55.469 211.217 55.469C217.419 55.469 223.564 57.805 230.013 62.612C230.203 62.757 230.45 62.815 230.688 62.777C230.808 62.7599 230.923 62.7185 231.026 62.6554C231.129 62.5923 231.218 62.5088 231.288 62.41L238.003 52.944C238.136 52.7564 238.192 52.5252 238.16 52.2976C238.128 52.07 238.011 51.8631 237.832 51.719C230.156 45.562 221.519 42.569 211.417 42.569C196.569 42.569 186.192 51.48 186.192 64.231C186.192 77.904 195.142 82.746 210.609 86.483C223.764 89.514 225.989 92.053 225.989 96.593C225.989 101.625 221.499 104.754 214.271 104.754C206.243 104.754 199.689 102.044 192.365 95.708C192.182 95.5539 191.948 95.4759 191.709 95.49C191.59 95.4981 191.474 95.53 191.368 95.5837C191.261 95.6375 191.167 95.7121 191.09 95.803L183.557 104.763C183.406 104.943 183.33 105.174 183.346 105.408C183.362 105.643 183.469 105.862 183.643 106.019C192.165 113.629 202.647 117.643 213.966 117.643C229.966 117.643 240.305 108.901 240.305 95.366C240.333 83.945 233.495 77.62 216.744 73.545L216.715 73.532ZM276.507 59.968C269.573 59.968 263.885 62.7 259.186 68.298V61.998C259.186 61.5 258.786 61.095 258.292 61.095H245.974C245.736 61.0963 245.508 61.192 245.34 61.3611C245.173 61.5302 245.079 61.7589 245.08 61.997V132.006C245.08 132.5 245.48 132.909 245.974 132.909H258.292C258.53 132.907 258.758 132.811 258.925 132.642C259.093 132.473 259.187 132.244 259.186 132.006V109.909C263.885 115.169 269.573 117.747 276.506 117.747C289.396 117.747 302.446 107.827 302.446 88.861C302.465 69.891 289.414 59.967 276.516 59.967L276.507 59.968ZM288.121 88.861C288.121 98.514 282.176 105.258 273.653 105.258C265.235 105.258 258.881 98.21 258.881 88.861C258.881 79.511 265.235 72.464 273.653 72.464C282.033 72.464 288.121 79.358 288.121 88.861ZM335.88 59.968C319.282 59.968 306.279 72.748 306.279 89.068C306.279 105.211 319.196 117.852 335.68 117.852C352.335 117.852 365.376 105.116 365.376 88.861C365.376 72.661 352.421 59.971 335.88 59.971V59.968ZM335.88 105.353C327.053 105.353 320.395 98.257 320.395 88.856C320.395 79.412 326.825 72.558 335.68 72.558C344.564 72.558 351.26 79.651 351.26 89.062C351.26 98.505 344.792 105.353 335.88 105.353ZM400.817 61.095H387.263V47.24C387.263 46.743 386.863 46.338 386.369 46.338H374.05C373.811 46.3385 373.581 46.4337 373.412 46.6026C373.243 46.7716 373.147 47.0008 373.146 47.24V61.095H367.23C366.992 61.0963 366.764 61.192 366.596 61.3611C366.429 61.5302 366.335 61.7589 366.336 61.997V72.581C366.335 72.8192 366.429 73.048 366.596 73.2172C366.764 73.3865 366.992 73.4824 367.23 73.484H373.146V100.874C373.146 111.936 378.654 117.548 389.526 117.548C393.939 117.548 397.601 116.634 401.054 114.675C401.194 114.598 401.31 114.486 401.39 114.348C401.471 114.211 401.512 114.054 401.511 113.895V103.812C401.51 103.659 401.471 103.509 401.396 103.376C401.321 103.243 401.213 103.132 401.083 103.052C400.953 102.969 400.804 102.921 400.65 102.915C400.496 102.908 400.343 102.942 400.207 103.013C397.839 104.203 395.547 104.754 392.978 104.754C389.031 104.754 387.262 102.956 387.262 98.942V73.49H400.816C401.054 73.4887 401.282 73.3928 401.45 73.2235C401.617 73.0542 401.711 72.8253 401.71 72.587V62.003C401.714 61.8849 401.694 61.7673 401.651 61.6571C401.609 61.547 401.544 61.4466 401.461 61.3622C401.379 61.2778 401.28 61.211 401.171 61.166C401.061 61.1209 400.944 61.0984 400.826 61.1L400.817 61.095ZM448.034 61.149V59.447C448.034 54.441 449.955 52.209 454.254 52.209C456.824 52.209 458.887 52.719 461.199 53.489C461.334 53.5345 461.479 53.5469 461.62 53.5252C461.761 53.5036 461.895 53.4485 462.01 53.3645C462.126 53.2805 462.22 53.1701 462.284 53.0425C462.348 52.9149 462.381 52.7738 462.379 52.631L462.378 42.254C462.38 42.0602 462.319 41.8708 462.205 41.7147C462.09 41.5586 461.927 41.4443 461.741 41.389C459.306 40.663 456.186 39.919 451.506 39.919C440.139 39.919 434.118 46.324 434.118 58.435V61.041H428.202C427.963 61.0415 427.733 61.1367 427.564 61.3056C427.395 61.4746 427.299 61.7038 427.298 61.943V72.581C427.298 73.078 427.708 73.484 428.202 73.484H434.118V115.721C434.118 116.225 434.528 116.625 435.022 116.625H447.33C447.834 116.625 448.234 116.225 448.234 115.721V73.487H459.734L477.35 115.721C475.352 120.154 473.383 121.038 470.7 121.038C468.532 121.038 466.24 120.392 463.91 119.108C463.689 118.996 463.434 118.972 463.196 119.041C463.078 119.081 462.97 119.144 462.879 119.228C462.787 119.311 462.713 119.413 462.663 119.526L458.488 128.686C458.392 128.894 458.379 129.131 458.451 129.348C458.524 129.566 458.676 129.747 458.878 129.856C463.234 132.215 467.162 133.223 472.023 133.223C481.116 133.223 486.148 128.981 490.571 117.586L511.935 62.382C511.991 62.2455 512.011 62.0973 511.994 61.9509C511.978 61.8045 511.925 61.6646 511.84 61.544C511.76 61.4232 511.651 61.3242 511.523 61.2558C511.395 61.1874 511.252 61.1517 511.107 61.152H498.285C498.097 61.151 497.913 61.2087 497.76 61.3172C497.606 61.4257 497.491 61.5795 497.429 61.757L484.293 99.266L469.911 61.732C469.847 61.5619 469.732 61.4155 469.583 61.3119C469.433 61.2083 469.256 61.1526 469.074 61.152H448.034V61.149ZM420.659 61.095H408.341C408.102 61.0961 407.873 61.1914 407.704 61.3603C407.535 61.5292 407.439 61.758 407.438 61.997V115.721C407.438 116.225 407.847 116.625 408.341 116.625H420.659C421.154 116.625 421.563 116.225 421.563 115.721V62.001C421.563 61.8822 421.54 61.7645 421.495 61.6547C421.45 61.5449 421.383 61.4452 421.299 61.3612C421.215 61.2773 421.115 61.2108 421.005 61.1656C420.895 61.1205 420.778 61.0975 420.659 61.098V61.095ZM414.571 36.631C409.691 36.631 405.735 40.581 405.735 45.459C405.735 46.6194 405.963 47.7685 406.407 48.8405C406.851 49.9126 407.502 50.8868 408.323 51.7073C409.143 52.5278 410.117 53.1787 411.189 53.6227C412.262 54.0667 413.411 54.2951 414.571 54.295C419.451 54.295 423.398 50.341 423.398 45.459C423.397 43.118 422.467 40.873 420.812 39.2176C419.157 37.5622 416.912 36.6318 414.571 36.631Z" fill="#1ED760"/>
</svg>
