<svg xmlns="http://www.w3.org/2000/svg" height="40" viewBox="0 -960 960 960" width="40"><path d="M480-120q-66 0-122-33t-83.333-87H160v-66.666h89.333q-5-23-5.166-48.167Q244-380 244-404h-84v-66.666h84q0-26.334.167-53.167.166-26.834 6.5-49.501H160V-640h117.333q14-24.667 35.834-46.833Q335-709 360-722l-72.666-72.667L332.667-840 424-748.667q24.333-8 56.667-8 32.333 0 56.666 8l92-91.333 45.334 45.333L602-722q24.333 13 46.5 35.5t36.167 46.5h116v66.666h-91.334q6.334 24.334 6.5 50.334.167 26 .167 52.334h84.667V-404H716q0 24-.167 49.167-.166 25.167-5.166 48.167h90V-240H686q-26.667 54-83 87t-123 33Zm-80-200h160v-66.666H400V-320Zm0-168.667h160v-66.666H400v66.666Z"/></svg>