<svg width="160" height="160" viewBox="0 0 160 160" fill="none" xmlns="http://www.w3.org/2000/svg">
<path d="M127.2 71.2C101.6 56 58.8 54.4 34.4 62C30.4 63.2 26.4 60.8 25.2 57.2C24 53.2 26.4 49.2 30 48C58.4 39.6 105.2 41.2 134.8 58.8C138.4 60.8 139.6 65.6 137.6 69.2C135.6 72 130.8 73.2 127.2 71.2ZM126.4 93.6C124.4 96.4 120.8 97.6 118 95.6C96.4 82.4 63.6 78.4 38.4 86.4C35.2 87.2 31.6 85.6 30.8 82.4C30 79.2 31.6 75.6 34.8 74.8C64 66 100 70.4 124.8 85.6C127.2 86.8 128.4 90.8 126.4 93.6ZM116.8 115.6C115.2 118 112.4 118.8 110 117.2C91.2 105.6 67.6 103.2 39.6 109.6C36.8 110.4 34.4 108.4 33.6 106C32.8 103.2 34.8 100.8 37.2 100C67.6 93.2 94 96 114.8 108.8C117.6 110 118 113.2 116.8 115.6ZM80 0C69.4943 0 59.0914 2.06926 49.3853 6.08964C39.6793 10.11 30.8601 16.0028 23.4315 23.4315C8.42855 38.4344 0 58.7827 0 80C0 101.217 8.42855 121.566 23.4315 136.569C30.8601 143.997 39.6793 149.89 49.3853 153.91C59.0914 157.931 69.4943 160 80 160C101.217 160 121.566 151.571 136.569 136.569C151.571 121.566 160 101.217 160 80C160 69.4943 157.931 59.0914 153.91 49.3853C149.89 39.6793 143.997 30.8601 136.569 23.4315C129.14 16.0028 120.321 10.11 110.615 6.08964C100.909 2.06926 90.5057 0 80 0Z" fill="white"/>
</svg>
