<svg width="159" height="159" viewBox="0 0 159 159" fill="none" xmlns="http://www.w3.org/2000/svg">
<path d="M111.299 63.5993C111.299 72.0331 107.948 80.1215 101.985 86.0851C96.0213 92.0487 87.9329 95.399 79.4991 95.399C71.0653 95.399 62.977 92.0487 57.0134 86.0851C51.0498 80.1215 47.6995 72.0331 47.6995 63.5993C47.6995 55.1655 51.0498 47.0772 57.0134 41.1136C62.977 35.15 71.0653 31.7997 79.4991 31.7997C87.9329 31.7997 96.0213 35.15 101.985 41.1136C107.948 47.0772 111.299 55.1655 111.299 63.5993Z" fill="white"/>
<path fill-rule="evenodd" clip-rule="evenodd" d="M76.2556 158.935C33.8547 157.233 0 122.317 0 79.4991C0 35.5918 35.5918 0 79.4991 0C123.406 0 158.998 35.5918 158.998 79.4991C158.998 123.406 123.406 158.998 79.4991 158.998C79.1361 159.001 78.773 159.001 78.41 158.998C77.6905 158.998 76.971 158.974 76.2556 158.935ZM28.4845 129.663C27.8901 127.956 27.6878 126.137 27.8926 124.341C28.0974 122.545 28.704 120.819 29.6674 119.289C30.6308 117.76 31.9263 116.467 33.4577 115.507C34.9891 114.547 36.7171 113.944 38.5133 113.743C69.5021 110.313 89.6869 110.623 120.525 113.815C122.323 114.002 124.056 114.598 125.589 115.555C127.123 116.513 128.418 117.809 129.376 119.343C130.333 120.877 130.928 122.609 131.115 124.408C131.302 126.207 131.076 128.025 130.454 129.723C143.671 116.351 151.072 98.3004 151.048 79.4991C151.048 39.9841 119.014 7.94991 79.4991 7.94991C39.9841 7.94991 7.94991 39.9841 7.94991 79.4991C7.94991 99.04 15.7846 116.752 28.4845 129.663Z" fill="white"/>
</svg>
