<?xml version="1.0" standalone="no"?>
<!DOCTYPE svg PUBLIC "-//W3C//DTD SVG 20010904//EN"
 "http://www.w3.org/TR/2001/REC-SVG-20010904/DTD/svg10.dtd">
<svg version="1.0" xmlns="http://www.w3.org/2000/svg"
 width="180.000000pt" height="180.000000pt" viewBox="0 0 180.000000 180.000000"
 preserveAspectRatio="xMidYMid meet">
<metadata>
Created by potrace 1.10, written by Peter Selinger 2001-2011
</metadata>
<g transform="translate(0.000000,180.000000) scale(0.100000,-0.100000)"
fill="#000000" stroke="none">
<path d="M729 1589 c-234 -34 -398 -222 -428 -492 -12 -109 -2 -210 43 -412 9
-38 17 -81 20 -95 2 -14 7 -41 11 -61 6 -34 5 -36 -32 -47 -92 -28 -162 -127
-150 -214 4 -32 1 -51 -14 -74 -24 -40 -59 -140 -59 -171 0 -30 20 -30 21 0
l0 22 11 -23 c18 -36 28 -25 22 22 -4 25 -4 60 0 79 7 40 67 112 141 169 67
53 95 100 95 160 0 26 -14 112 -31 190 -65 304 -72 390 -43 521 56 253 238
407 480 407 189 0 393 -103 428 -216 6 -20 2 -21 -111 -28 -105 -6 -288 -27
-350 -41 -18 -4 -24 -15 -29 -46 l-7 -40 -52 6 -53 7 -12 -73 c-7 -41 -20 -93
-31 -117 -16 -38 -21 -43 -41 -36 -38 12 -91 6 -118 -14 -106 -78 -60 -272 65
-272 38 0 95 24 95 40 0 6 4 10 9 10 4 0 11 -23 14 -50 6 -48 25 -101 113
-305 34 -80 39 -99 39 -170 0 -71 -4 -86 -31 -134 -19 -34 -43 -61 -65 -73
l-34 -18 43 0 c23 0 42 4 42 10 0 5 11 26 25 46 32 47 48 105 47 174 l0 55 99
1 99 1 -6 -46 c-5 -38 -3 -49 14 -64 24 -22 57 -16 72 13 7 13 5 31 -5 61 -8
23 -14 43 -13 44 2 1 43 14 92 28 l89 25 23 -23 c42 -42 68 -106 69 -170 1
-42 8 -70 23 -95 12 -19 22 -41 22 -47 0 -7 7 -13 16 -13 18 0 12 28 -17 76
-12 20 -19 50 -19 85 0 66 -33 140 -81 186 l-34 31 -70 -23 c-38 -12 -83 -26
-98 -29 -26 -6 -27 -5 -17 14 19 35 15 99 -9 130 l-21 29 60 27 c61 27 141
101 154 142 10 30 29 28 68 -7 30 -27 33 -34 33 -89 0 -43 -5 -65 -17 -79 -10
-11 -18 -23 -18 -26 0 -12 28 -7 32 5 5 15 84 -13 122 -43 52 -41 80 -141 56
-203 -8 -21 -16 -25 -56 -28 -27 -2 -49 -8 -52 -16 -3 -9 9 -11 50 -7 43 5 59
2 86 -14 43 -27 72 -77 72 -123 0 -40 15 -51 25 -18 15 47 -44 155 -93 171
-10 3 -11 14 -3 49 16 73 -3 136 -58 191 -30 30 -61 51 -88 58 -40 11 -41 12
-31 39 22 57 -19 155 -72 175 -30 11 -36 23 -22 43 4 6 43 17 88 24 112 17
117 21 73 67 -70 73 -99 160 -99 298 0 50 5 110 11 134 11 51 4 61 -48 61 -25
0 -33 4 -33 18 0 35 -61 111 -121 151 -66 44 -152 75 -249 91 -73 11 -91 11
-171 -1z m595 -289 c2 -3 0 -43 -6 -89 -19 -147 23 -324 93 -387 21 -19 21
-19 -53 -31 -86 -14 -410 -70 -453 -78 -26 -5 -34 -1 -58 30 -76 96 -109 239
-88 383 19 139 13 129 94 143 173 29 453 46 471 29z m-589 -257 c0 -128 3
-143 28 -204 15 -36 47 -86 70 -112 l42 -46 105 19 c58 11 141 27 184 35 44 8
81 13 84 11 2 -2 -5 -25 -16 -49 -41 -93 -153 -170 -266 -183 -72 -9 -174 22
-248 76 -50 36 -57 45 -67 90 -6 28 -11 66 -11 85 0 34 -20 60 -28 36 -3 -8
-17 -27 -32 -45 -55 -61 -145 -32 -171 55 -29 95 76 198 147 144 10 -8 24 -15
29 -15 15 0 53 99 66 174 l11 66 37 0 36 0 0 -137z m-3 -493 c53 -39 125 -60
205 -60 49 0 67 -4 83 -20 36 -36 38 -91 6 -135 -12 -17 -28 -20 -120 -23
-103 -4 -106 -3 -115 20 -5 12 -32 74 -59 136 -28 61 -48 112 -46 112 2 0 23
-14 46 -30z m-342 -97 c-1 -44 -40 -101 -103 -150 -72 -58 -86 -54 -67 18 14
50 64 107 115 130 50 23 55 23 55 2z m669 -246 c1 -14 -5 -18 -21 -15 -24 3
-27 27 -11 88 6 23 7 22 19 -15 7 -22 13 -48 13 -58z"/>
<path d="M1200 1195 c-26 -32 13 -81 48 -59 34 22 22 74 -18 74 -10 0 -23 -7
-30 -15z"/>
<path d="M872 1154 c-27 -19 -28 -36 -3 -58 25 -23 61 -6 61 29 0 33 -30 49
-58 29z"/>
<path d="M1133 1053 c13 -117 -65 -144 -81 -28 -4 28 -13 50 -21 53 -11 4 -13
-4 -8 -42 4 -25 14 -60 22 -76 13 -24 22 -30 50 -30 44 0 65 29 65 91 0 53 -7
79 -22 79 -7 0 -9 -18 -5 -47z"/>
<path d="M480 891 c0 -5 11 -12 25 -15 20 -5 25 -13 25 -36 0 -20 5 -30 15
-30 22 0 19 53 -3 73 -20 18 -62 23 -62 8z"/>
</g>
</svg>
